<svg xmlns="http://www.w3.org/2000/svg" viewBox="0 0 64 64">
  <g transform="translate(32, 32) scale(0.43)">
    <g transform="rotate(-12)">
      <path d="M 0 22 C -6 10, -14 2, -24 6 C -34 10, -34 24, -28 34 C -22 44, -12 52, -4 56 C -1 57.5, 1 57.5, 4 56 C 12 52, 22 44, 28 34 C 34 24, 34 10, 24 6 C 14 2, 6 10, 0 22 Z" fill="#FF8C42"/>
      <path d="M -26.32 -15.86 C -23.51 -9.56, -25.12 -2.71, -29.92 -0.58 C -34.71 1.55, -40.87 -1.83, -43.68 -8.14 C -46.49 -14.44, -44.88 -21.29, -40.08 -23.42 C -35.29 -25.55, -29.13 -22.17, -26.32 -15.86 Z" fill="#FF8C42"/>
      <path d="M -4.09 -32.25 C -3.17 -25.69, -6.41 -19.81, -11.33 -19.12 C -16.25 -18.43, -20.99 -23.18, -21.91 -29.75 C -22.83 -36.31, -19.59 -42.19, -14.67 -42.88 C -9.75 -43.57, -5.01 -38.82, -4.09 -32.25 Z" fill="#FF8C42"/>
      <path d="M 21.91 -30.75 C 20.99 -24.18, 16.25 -19.43, 11.33 -20.12 C 6.41 -20.81, 3.17 -26.69, 4.09 -33.25 C 5.01 -39.82, 9.75 -44.57, 14.67 -43.88 C 19.59 -43.19, 22.83 -37.31, 21.91 -30.75 Z" fill="#FF8C42"/>
      <path d="M 43.68 -12.14 C 40.87 -5.83, 34.71 -2.45, 29.92 -4.58 C 25.12 -6.71, 23.51 -13.56, 26.32 -19.86 C 29.13 -26.17, 35.29 -29.55, 40.08 -27.42 C 44.88 -25.29, 46.49 -18.44, 43.68 -12.14 Z" fill="#FF8C42"/>
    </g>
  </g>
</svg>
